<?xml version="1.0" encoding="UTF-8"?>
<svg width="166px" height="30px" viewBox="0 0 166 30" version="1.1" xmlns="http://www.w3.org/2000/svg" xmlns:xlink="http://www.w3.org/1999/xlink">
    <!-- Generator: Sketch 51.3 (57544) - http://www.bohemiancoding.com/sketch -->
    <title>Page 1</title>
    <desc>Created with Sketch.</desc>
    <defs>
        <polygon id="path-1" points="0.528827586 0.0945 29.606069 0.0945 29.606069 29.7777778 0.528827586 29.7777778"></polygon>
        <polygon id="path-3" points="1.11517938e-19 0.204242857 1.11517938e-19 28.6698143 28.8233486 28.6698143 28.8233486 0.204242857"></polygon>
        <polygon id="path-5" points="0.822967824 0.0945 24.8955208 0.0945 24.8955208 29.7774611 0.822967824 29.7774611"></polygon>
    </defs>
    <g id="Freja-Creative-Multi-Purpose-Portfolio-Template" stroke="none" stroke-width="1" fill="none" fill-rule="evenodd">
        <g id="HOMESCREEN" transform="translate(-154.000000, -13109.000000)">
            <g id="Page-1" transform="translate(154.000000, 13109.000000)">
                <path d="M63,30 L67,30 L67,1.00422064 C67,1.00211032 66.9990246,1 66.9970739,1 L63.0039015,1 C63.0039015,1 63,1.00211032 63,1.0052758 L63,30 Z" id="Fill-1" fill="#FA9600"></path>
                <path d="M87.0788732,13.8343703 L78.5512231,2.44140014 C77.8714603,1.53287487 76.8118606,1 75.6899926,1 L73,1 L73,30 L76.478725,30 C76.9073388,30 77.2550037,29.6465088 77.2550037,29.2107121 L77.2550037,8.00651312 L87.0861379,20.5464833 L96.7439585,8.02656187 L96.7439585,29.156897 C96.7439585,29.6222392 97.115493,30 97.5731653,30 L101,30 L101,1 L98.3245367,1 C97.1912528,1 96.1243884,1.54237165 95.4456635,2.46461449 L87.0788732,13.8343703 Z" id="Fill-3" fill="#FA9600"></path>
                <g id="Group-7" transform="translate(108.000000, 0.000000)">
                    <mask id="mask-2" fill="white">
                        <use xlink:href="#path-1"></use>
                    </mask>
                    <g id="Clip-6"></g>
                    <path d="M15.0664138,25.5589333 C11.9691724,25.5589333 9.43365517,24.5287111 7.52813793,22.4957111 C5.69813793,20.5397667 4.77124138,17.9958778 4.77124138,14.9358222 C4.77124138,11.8768222 5.69917241,9.33293333 7.52813793,7.37593333 C9.43365517,5.34293333 11.9691724,4.31165556 15.0664138,4.31165556 C18.1636552,4.31165556 20.7002069,5.34293333 22.6046897,7.37593333 C24.4336552,9.33293333 25.3615862,11.8768222 25.3615862,14.9358222 C25.3615862,17.9958778 24.4357241,20.5397667 22.6046897,22.4957111 C20.7002069,24.5287111 18.1636552,25.5589333 15.0664138,25.5589333 M15.0664138,0.0936555556 C10.8229655,0.0936555556 7.28710345,1.55454444 4.55710345,4.43304444 C1.88503448,7.22604444 0.528827586,10.7589889 0.528827586,14.9358222 C0.528827586,19.1126556 1.88503448,22.6456 4.55503448,25.4354333 C7.28710345,28.3171 10.8229655,29.7779889 15.0664138,29.7779889 C19.3108966,29.7779889 22.8467586,28.3171 25.5767586,25.4386 C28.2498621,22.6456 29.606069,19.1116 29.606069,14.9358222 C29.606069,10.7600444 28.2498621,7.22604444 25.5777931,4.43515556 C22.8467586,1.55454444 19.3108966,0.0936555556 15.0664138,0.0936555556" id="Fill-5" fill="#FA9600" mask="url(#mask-2)"></path>
                </g>
                <path d="M160.132272,3.92289779 L152.000526,24.3103737 L143.869831,3.92289779 C143.166335,2.15755194 141.461749,1 139.566831,1 L138,1 L149.702858,29.7615253 C149.761746,29.9060874 149.901604,30 150.057235,30 L153.941713,30 C154.099448,30 154.241409,29.9050322 154.301348,29.7583597 L166,1 L164.435272,1 C162.540354,1 160.835768,2.15755194 160.132272,3.92289779" id="Fill-8" fill="#FA9600"></path>
                <g id="Group-12">
                    <mask id="mask-4" fill="white">
                        <use xlink:href="#path-3"></use>
                    </mask>
                    <g id="Clip-11"></g>
                    <path d="M16.3714629,19.8175643 C14.7051771,18.1707786 12.9051771,16.6058143 10.0580914,15.8362786 L14.4120343,5.4346 L19.1537486,16.76635 L20.8262057,20.73935 L22.23432,24.07435 C19.6001486,23.3824929 18.0768343,21.5016357 16.3714629,19.8175643 Z M28.8233486,28.6698143 L16.92072,0.666171429 C16.8014057,0.385492857 16.5278057,0.204242857 16.2254057,0.204242857 L12.5996914,0.204242857 C12.2972914,0.204242857 12.0236914,0.385492857 11.9043771,0.666171429 L-0.000308571429,28.6698143 L1.64952,28.6698143 C3.46803429,28.6698143 5.11066286,27.5761 5.82140571,25.8909929 L7.99786286,20.73935 L8.51214857,19.5120286 C11.03112,20.1427786 12.3590057,22.0754214 14.0294057,23.7242786 C16.3313486,25.9987071 18.9408343,28.5652071 24.1721486,28.6594571 L24.1762629,28.6698143 L28.8233486,28.6698143 Z" id="Fill-10" fill="#FA9600" mask="url(#mask-4)"></path>
                </g>
                <path d="M37.003,9.012 C37.004,9.016 37.007,9.019 37.007,9.019 L37,9 L37.003,9.012 Z" id="Fill-13" fill="#000000"></path>
                <g id="Group-17" transform="translate(32.000000, 0.000000)">
                    <mask id="mask-6" fill="white">
                        <use xlink:href="#path-5"></use>
                    </mask>
                    <g id="Clip-16"></g>
                    <path d="M21.6601042,15.5052944 C20.7298958,14.8920167 19.6590625,14.3832389 18.4736458,13.9916278 C17.3184375,13.6084611 16.1267708,13.2654056 14.9351042,12.9687944 C12.4955208,12.3629056 9.7059375,11.92485 7.4340625,10.7954056 C6.84447917,10.5030167 6.33927083,10.1314611 6.01322917,9.59207222 C5.92572917,9.45485 5.84552083,9.28701667 5.7809375,9.09385 C5.7809375,9.09385 5.77677083,9.08646111 5.77572917,9.08223889 L5.77260417,9.06851667 C5.2340625,7.39018333 5.92677083,3.95646111 12.8382292,3.95646111 C18.7611458,3.95646111 19.6371875,7.09568333 19.7944792,8.90596111 C19.8153125,9.32501667 20.1673958,9.54562778 20.5361458,9.54562778 L24.1778125,9.54562778 C24.1778125,8.80990556 24.1705208,8.06257222 24.0309375,7.33846111 C23.9184375,6.75051667 23.7371875,6.17523889 23.4934375,5.63057222 C22.9955208,4.52012778 22.2288542,3.55640556 21.3059375,2.77740556 C21.2621875,2.74046111 21.2173958,2.70351667 21.1726042,2.66762778 C19.1507292,0.959738889 16.2809375,0.0941833333 12.6434375,0.0941833333 C9.03614583,0.0941833333 6.27989583,0.859461111 4.4528125,2.36890556 C2.5934375,3.90790556 1.6496875,5.92612778 1.6496875,8.36868333 C1.6496875,10.1209056 2.1778125,11.5395722 3.2184375,12.5845722 C4.2028125,13.5746833 5.4496875,14.3811278 6.92364583,14.9827944 C8.3559375,15.5675722 9.9215625,16.0510167 11.5788542,16.4215167 C13.1892708,16.7804056 14.7132292,17.1741278 16.1069792,17.5900167 C17.4538542,17.9911278 18.5840625,18.5041278 19.4684375,19.1131833 C20.2465625,19.6504611 20.6246875,20.3629611 20.6246875,21.29185 C20.6246875,22.3674611 20.6246875,25.64285 13.3976042,25.64285 C11.0236458,25.64285 9.10177083,25.2290722 7.6903125,24.4162944 C6.84239583,23.9275722 6.10177083,23.2351278 5.67052083,22.3389611 C5.47885417,21.9389056 5.3434375,21.5114056 5.27260417,21.0722944 L5.1559375,20.3397389 C5.09760417,19.9671278 4.78302083,19.6926833 4.41010417,19.6874056 L0.842395833,19.6399056 C0.7840625,19.6399056 0.8746875,20.9340167 0.885104167,21.0501278 C0.9309375,21.5905722 1.02364583,22.1204611 1.16947917,22.6429611 C1.2965625,23.0979056 1.45697917,23.5422944 1.6496875,23.9719056 C1.8434375,24.4004611 2.06739583,24.8142389 2.32364583,25.2069056 C2.57885417,25.6006278 2.86427083,25.9732389 3.17885417,26.3205167 C3.47052083,26.6424611 3.78822917,26.9411833 4.12572917,27.2135167 C6.25697917,28.9150722 9.3621875,29.7774611 13.3559375,29.7774611 C16.8913542,29.7774611 19.7132292,29.0491278 21.7434375,27.6114611 C23.8340625,26.1294611 24.8955208,23.9602944 24.8955208,21.1651833 C24.8955208,18.7775167 23.8069792,16.8732944 21.6601042,15.5052944" id="Fill-15" fill="#FA9600" mask="url(#mask-6)"></path>
                </g>
                <path d="M37.224,9.472 C37.136,9.327 37.058,9.173 37,9 C37.063,9.183 37.139,9.342 37.224,9.472" id="Fill-18" fill="#000000"></path>
                <path d="M37.224,9.472 C37.136,9.327 37.058,9.173 37,9 C37.063,9.183 37.139,9.342 37.224,9.472" id="Fill-20" fill="#000000"></path>
            </g>
        </g>
    </g>
</svg>