<?xml version="1.0" encoding="UTF-8"?>
<svg width="197px" height="160px" viewBox="0 0 197 160" version="1.1" xmlns="http://www.w3.org/2000/svg" xmlns:xlink="http://www.w3.org/1999/xlink">
    <!-- Generator: Sketch 51.3 (57544) - http://www.bohemiancoding.com/sketch -->
    <title>Page 1</title>
    <desc>Created with Sketch.</desc>
    <defs>
        <polygon id="path-1" points="1.43616333e-20 0.661253731 1.43616333e-20 142 70.6703269 142 141.340654 142 141.340654 0.661253731"></polygon>
    </defs>
    <g id="Freja-Creative-Multi-Purpose-Portfolio-Template" stroke="none" stroke-width="1" fill="none" fill-rule="evenodd">
        <g id="HOMESCREEN" transform="translate(-621.000000, -5468.000000)">
            <g id="Page-1" transform="translate(621.000000, 5459.000000)">
                <g id="Group-3" transform="translate(0.000000, 27.000000)">
                    <mask id="mask-2" fill="white">
                        <use xlink:href="#path-1"></use>
                    </mask>
                    <g id="Clip-2"></g>
                    <path d="M30.5636985,142 C22.7335642,142 14.9034299,139.01906 8.94260896,133.058239 C3.17571343,127.292403 -0.000211940299,119.613806 -0.000211940299,111.437149 C-0.000211940299,103.261552 3.17571343,95.5829552 8.94260896,89.8171194 L28.7155791,70.045209 L30.213997,71.5436269 L10.4410269,91.3155373 C5.07469851,96.680806 2.11919104,103.828493 2.11919104,111.437149 C2.11919104,119.047925 5.07469851,126.194552 10.4410269,131.559821 C21.5361015,142.655955 39.5912955,142.654896 50.6863701,131.559821 L130.900475,51.3467761 C136.265743,45.9815075 139.221251,38.8338209 139.221251,31.2251642 C139.221251,23.6143881 136.265743,16.4677612 130.900475,11.1024925 C125.534146,5.73616418 118.387519,2.78065672 110.776743,2.78065672 C103.168087,2.78065672 96.0214597,5.73616418 90.6551313,11.1024925 L89.1567134,9.60301493 C94.9225493,3.8371791 102.601146,0.661253731 110.776743,0.661253731 C118.9534,0.661253731 126.631997,3.8371791 132.398893,9.60301493 C138.164728,15.3699104 141.340654,23.0485075 141.340654,31.2251642 C141.340654,39.4007612 138.164728,47.0793582 132.398893,52.845194 L52.1847881,133.058239 C46.2239672,139.01906 38.3938328,142 30.5636985,142" id="Fill-1" fill="#7E2CFF" mask="url(#mask-2)"></path>
                </g>
                <path d="M142.587532,143 C137.882809,143 133.464277,141.193485 130.146154,137.911474 C126.826974,134.629464 125,130.261456 125,125.609417 C125,120.957379 126.826974,116.588327 130.146154,113.30736 L138.237643,105.305437 C138.649504,104.898188 139.317987,104.898188 139.730904,105.305437 C140.143821,105.71373 140.143821,106.374727 139.730904,106.781976 L131.639415,114.7839 C128.719424,117.670147 127.112109,121.514997 127.112109,125.609417 C127.112109,129.703838 128.719424,133.547643 131.639415,136.434935 C137.676878,142.40479 147.498185,142.40479 153.535648,136.434935 L183.197051,107.104643 C183.609968,106.696349 184.278451,106.696349 184.690312,107.104643 C185.103229,107.512936 185.103229,108.172889 184.690312,108.581182 L155.028909,137.911474 C151.710786,141.193485 147.292254,143 142.587532,143" id="Fill-4" fill="#7E2CFF"></path>
                <path d="M144.080755,135 C141.384405,135 138.851728,133.967191 136.950361,132.090309 C135.047931,130.214475 134,127.715811 134,125.055672 C134,122.394484 135.047931,119.895819 136.950361,118.019986 L156.931193,98.3074836 C157.345689,97.8975055 158.018447,97.8975055 158.434006,98.3074836 C158.849565,98.7164132 158.849565,99.3801373 158.434006,99.7901154 L138.453175,119.502618 C136.952487,120.983153 136.12562,122.955451 136.12562,125.055672 C136.12562,127.154843 136.952487,129.126094 138.453175,130.607677 C139.953863,132.088212 141.953009,132.902925 144.080755,132.902925 C146.209563,132.902925 148.208709,132.088212 149.709397,130.607677 L160.185517,120.271196 C160.601076,119.861218 161.273835,119.861218 161.688331,120.271196 C162.10389,120.681174 162.10389,121.344898 161.688331,121.753828 L151.212211,132.090309 C149.310844,133.967191 146.778167,135 144.080755,135" id="Fill-6" fill="#7E2CFF"></path>
                <path d="M162.455383,83 C162.197868,83 161.939297,82.9063787 161.735607,82.7170322 C161.309229,82.3215083 161.286011,81.6566917 161.683893,81.230662 L162.925032,79.9020807 L181.438691,61.4471074 C191.373081,51.5442849 191.373081,35.4319487 181.438691,25.5291262 C171.503245,15.6263036 155.338886,15.6263036 145.403441,25.5291262 L132.801024,38.0901633 C132.389421,38.5004141 131.721359,38.5004141 131.308702,38.0901633 C130.897099,37.6788606 130.897099,37.0129921 131.308702,36.6027413 L143.911119,24.0417041 C154.668713,13.319432 172.173418,13.319432 182.931013,24.0417041 C193.689662,34.7650282 193.689662,52.2112054 182.931013,62.9345294 L164.443739,81.3621527 L163.226874,82.6654878 C163.020017,82.887444 162.738228,83 162.455383,83" id="Fill-8" fill="#7E2CFF"></path>
                <path d="M163.045474,91 C162.790373,91 162.535272,90.9066152 162.332446,90.717747 C161.910066,90.3232224 161.887066,89.6600853 162.281217,89.235132 L163.766865,87.6329004 L185.925076,65.3947241 C191.718162,59.5807326 194.909011,51.8381874 194.909011,43.5919938 C194.909011,35.3478987 191.718162,27.6053535 185.925076,21.791362 C185.516288,21.3810984 185.516288,20.7179613 185.925076,20.3076977 C186.332819,19.8974341 186.994617,19.8974341 187.403406,20.3076977 C193.591688,26.517263 197,34.7875898 197,43.5919938 C197,52.3984963 193.591688,60.6677738 187.403406,66.8783884 L165.271331,89.0903331 L163.80973,90.6663329 C163.604813,90.8877284 163.325666,91 163.045474,91" id="Fill-10" fill="#7E2CFF"></path>
                <path d="M128.053597,35 C127.783944,35 127.51429,34.8967715 127.30889,34.6913678 C126.897037,34.279507 126.897037,33.6137884 127.30889,33.2019276 L140.201696,20.3088956 C140.613549,19.8970348 141.28031,19.8970348 141.69111,20.3088956 C142.102963,20.719703 142.102963,21.386475 141.69111,21.7983357 L128.798304,34.6913678 C128.592904,34.8967715 128.323251,35 128.053597,35" id="Fill-12" fill="#7E2CFF"></path>
                <path d="M163.427427,70 C163.166759,70 162.906091,69.9062286 162.699908,69.7176321 C162.26831,69.3214741 162.243739,68.6555915 162.645424,68.2288788 L163.434905,67.3912575 L175.236528,55.7530628 C181.407088,49.6652945 181.407088,39.7602911 175.236528,33.6725228 C172.251669,30.7297854 168.275419,29.1072234 164.041705,29.1072234 C159.807992,29.1072234 155.833878,30.7297854 152.849019,33.6725228 L144.823873,41.5872537 C144.406163,41.9992159 143.730991,41.9992159 143.313282,41.5872537 C142.895573,41.1763452 142.895573,40.509409 143.313282,40.0974468 L151.338428,32.1827159 C154.724972,28.8417132 159.237514,27 164.041705,27 C168.845896,27 173.358439,28.8417132 176.747119,32.1827159 C183.75096,39.0923013 183.75096,50.3332843 176.747119,57.2428697 L164.20943,69.6638979 C163.998973,69.8872635 163.713734,70 163.427427,70" id="Fill-14" fill="#7E2CFF"></path>
                <path d="M20.0466333,122 C19.7787621,122 19.510891,121.897455 19.3068485,121.69341 C18.8977172,121.284276 18.8977172,120.622963 19.3068485,120.213828 L47.2135819,92.3068512 C47.6227132,91.8977163 48.2840202,91.8977163 48.6931515,92.3068512 C49.1022828,92.7159861 49.1022828,93.3772988 48.6931515,93.7864337 L20.7864181,121.69341 C20.5823756,121.897455 20.3145045,122 20.0466333,122" id="Fill-16" fill="#7E2CFF"></path>
                <path d="M31.5902505,157 C26.1822154,157 21.1105857,154.958312 17.3121863,151.252949 C16.8959379,150.846896 16.8959379,150.189526 17.3121863,149.784512 C17.7284346,149.378459 18.4012453,149.378459 18.8174937,149.784512 C22.2145488,153.097322 26.7506979,154.923003 31.5902505,154.923003 C36.4308677,154.923003 40.9670168,153.097322 44.3630073,149.784512 L58.1822402,136.303761 C58.5984886,135.898746 59.2723638,135.898746 59.6886122,136.303761 C60.1037959,136.709814 60.1037959,137.367183 59.6886122,137.772198 L45.8683147,151.252949 C42.0699153,154.958312 36.9993501,157 31.5902505,157" id="Fill-18" fill="#7E2CFF"></path>
                <path d="M73.0541309,123 C72.7843408,123 72.5145508,122.896446 72.3090466,122.690395 C71.8969845,122.277236 71.8969845,121.60942 72.3090466,121.196261 L121.664819,71.710203 C128.635098,64.7192618 128.635098,53.3452455 121.664819,46.3543043 C114.691379,39.3633631 103.345442,39.3654764 96.3762168,46.3543043 L79.5006379,63.2747913 C79.0896296,63.6868933 78.4225315,63.6868933 78.0104693,63.2747913 C77.5984072,62.8616326 77.5984072,62.1927593 78.0104693,61.7796006 L94.8860483,44.8601702 C102.678344,37.0471383 115.360584,37.0460816 123.154988,44.8601702 C130.948337,52.6742589 130.948337,65.3891918 123.154988,73.2043371 L73.7992151,122.690395 C73.593711,122.896446 73.3239209,123 73.0541309,123" id="Fill-20" fill="#7E2CFF"></path>
                <path d="M41.0608219,127 C40.7893194,127 40.5178169,126.896069 40.3110083,126.689266 C39.8963306,126.274602 39.8963306,125.60435 40.3110083,125.189685 C42.8902824,122.60943 44.5967183,121.6995 46.2480052,120.818205 C47.8303559,119.971907 49.325741,119.173332 51.6833588,116.816847 C54.039916,114.459302 54.8395758,112.963963 55.6848395,111.37954 C56.5661622,109.729365 57.4771805,108.020861 60.0585758,105.441666 C62.6389104,102.861411 64.3453463,101.95042 65.9955727,101.070185 C67.578984,100.223887 69.074369,99.4253126 71.4319868,97.068828 C73.7896045,94.7112829 74.5892644,93.2148834 75.4355887,91.6293998 C76.3169114,89.9792243 77.2300508,88.27072 79.8103855,85.6904648 C82.3917807,83.1091491 84.0992771,82.1970984 85.750564,81.3147423 C87.3350359,80.4684441 88.8314815,79.6698694 91.1901598,77.3102033 C91.603777,76.8965989 92.2751094,76.8965989 92.6897871,77.3102033 C93.1034043,77.7248682 93.1034043,78.39618 92.6897871,78.8108449 C90.1083919,81.3921606 88.4008955,82.3031508 86.7496085,83.1865674 C85.1651367,84.0318051 83.6686911,84.8314403 81.3100128,87.1900459 C78.952395,89.5486515 78.1527352,91.0450511 77.3064109,92.6294741 C76.4250882,94.2796496 75.5119488,95.9881539 72.9316141,98.5684091 C70.3512794,101.148664 68.6448435,102.058594 66.9946172,102.939889 C65.4112059,103.785127 63.9158208,104.584762 61.5582031,106.941247 C59.2005853,109.299853 58.401986,110.795192 57.5567223,112.378554 C56.6753996,114.02979 55.7633207,115.737234 53.1829861,118.316429 C50.6037119,120.896684 48.8972761,121.807674 47.2459891,122.688969 C45.6636384,123.534207 44.1682533,124.332782 41.8106356,126.689266 C41.603827,126.896069 41.3323245,127 41.0608219,127" id="Fill-22" fill="#7E2CFF"></path>
                <path d="M94.1054183,64 C93.8225019,64 93.5395856,63.8916928 93.3240829,63.6761835 C92.8919724,63.2440597 92.8919724,62.5455885 93.3240829,62.1134647 L100.114075,55.323264 C100.545081,54.8922453 101.244635,54.8922453 101.676746,55.323264 C102.107751,55.7553877 102.107751,56.4549641 101.676746,56.8859827 L94.8867536,63.6761835 C94.671251,63.8916928 94.3883346,64 94.1054183,64" id="Fill-24" fill="#7E2CFF"></path>
                <path d="M40.0995534,143 C39.8181381,143 39.5367228,142.892263 39.3223634,142.677889 C38.8925455,142.248042 38.8925455,141.55325 39.3223634,141.123403 L41.1240811,139.321561 C41.5527997,138.892813 42.2486431,138.892813 42.678461,139.321561 C43.1071797,139.751409 43.1071797,140.4473 42.678461,140.876048 L40.8767434,142.677889 C40.6623841,142.892263 40.3809687,143 40.0995534,143" id="Fill-26" fill="#7E2CFF"></path>
                <path d="M19.0432467,140 C18.7762423,140 18.5092379,139.897784 18.3058556,139.694394 C17.8980481,139.286571 17.8980481,138.627379 18.3058556,138.219557 L23.2193623,133.305867 C23.6271698,132.898044 24.2863369,132.898044 24.6941444,133.305867 C25.1019519,133.71369 25.1019519,134.372881 24.6941444,134.780704 L19.7806377,139.694394 C19.5772555,139.897784 19.3102511,140 19.0432467,140" id="Fill-28" fill="#7E2CFF"></path>
                <path d="M38.5005309,33.5057093 C31.8861769,33.5057093 26.5057093,38.8861769 26.5057093,45.5005309 C26.5057093,52.1138231 31.8861769,57.4942907 38.5005309,57.4942907 C45.114885,57.4942907 50.4942907,52.1138231 50.4942907,45.5005309 C50.4942907,38.8861769 45.114885,33.5057093 38.5005309,33.5057093 M38.5005309,65.6727712 C27.3775001,65.6727712 18.3272288,56.6235618 18.3272288,45.5005309 C18.3272288,34.3775001 27.3775001,25.3272288 38.5005309,25.3272288 C49.6246236,25.3272288 58.6727712,34.3775001 58.6727712,45.5005309 C58.6727712,56.6235618 49.6246236,65.6727712 38.5005309,65.6727712 M24.4138362,69.530525 C25.5978152,69.530525 26.7998458,69.7694445 27.9519688,70.2632115 C28.1314239,70.3396657 28.3087553,70.4139962 28.4871485,70.4851412 C31.8160938,71.8252142 33.9653076,74.9449721 33.9653076,78.4363827 L33.9653076,79.0735014 C33.9653076,79.5162989 34.3263415,79.876271 34.769139,79.876271 L42.230861,79.876271 C42.6736585,79.876271 43.0346924,79.5162989 43.0346924,79.0735014 L43.0346924,78.4363827 C43.0346924,74.9449721 45.1839062,71.8252142 48.5107277,70.486203 C48.6912447,70.4139962 48.8685761,70.3396657 49.0459075,70.2632115 C52.3674197,68.8445605 56.1104921,69.5220301 58.5846364,71.9961744 L59.034867,72.4474668 C59.3459933,72.7585931 59.8567501,72.759655 60.1700001,72.4464049 L65.4453431,67.1700001 C65.5982516,67.0181535 65.681077,66.8163993 65.681077,66.6019026 C65.681077,66.387406 65.5982516,66.1856517 65.4453431,66.0338051 L64.9961744,65.5846364 C62.5230919,63.111554 61.8424368,59.3674197 63.2632115,56.0480312 C63.3407276,55.8696379 63.4139962,55.6933684 63.4851412,55.5149752 C64.8252142,52.1839062 67.9449721,50.0336306 71.4363827,50.0336306 L72.0735014,50.0336306 C72.5162989,50.0336306 72.876271,49.6736585 72.876271,49.230861 L72.876271,41.769139 C72.876271,41.3263415 72.5162989,40.9663694 72.0735014,40.9663694 L71.4363827,40.9663694 C67.946034,40.9663694 64.8262761,38.8171557 63.486203,35.4892723 C63.4139962,35.3087553 63.3407276,35.1314239 63.2632115,34.9540925 C61.8424368,31.6325803 62.5230919,27.8895079 64.9961744,25.4164254 L65.4442812,24.9672568 C65.5982516,24.8132864 65.681077,24.612594 65.681077,24.3980974 C65.681077,24.1836007 65.5982516,23.9818465 65.4453431,23.8310617 L60.1700001,18.5546569 C59.865245,18.2499018 59.3385602,18.2499018 59.0338051,18.5546569 L58.5846364,19.0038256 C56.1126158,21.4758462 52.3716671,22.159687 49.0480312,20.7367885 C48.8685761,20.6592724 48.6912447,20.5860038 48.5128515,20.5148588 C45.1839062,19.1747858 43.0346924,16.053966 43.0346924,12.5636173 L43.0346924,11.9264986 C43.0346924,11.4837011 42.6736585,11.123729 42.230861,11.123729 L34.769139,11.123729 C34.3263415,11.123729 33.9653076,11.4837011 33.9653076,11.9264986 L33.9653076,12.5636173 C33.9653076,16.053966 31.8160938,19.1747858 28.4892723,20.513797 C28.3087553,20.5860038 28.1314239,20.6592724 27.9540925,20.7367885 C24.6304566,22.1554395 20.888446,21.4769081 18.4164254,19.0038256 L17.9672568,18.5557188 C17.6603779,18.2488399 17.1336931,18.2499018 16.8310617,18.5546569 L11.5546569,23.8299999 C11.4017484,23.9818465 11.318923,24.1836007 11.318923,24.3980974 C11.318923,24.612594 11.4017484,24.8132864 11.5546569,24.9661949 L12.0048875,25.4174873 C14.4769081,27.8895079 15.1575632,31.6325803 13.7367885,34.9519688 C13.6592724,35.1314239 13.5860038,35.3087553 13.5148588,35.4871485 C12.1737239,38.8171557 9.05396599,40.9663694 5.56361732,40.9663694 L4.92649861,40.9663694 C4.48370111,40.9663694 4.12372904,41.3263415 4.12372904,41.769139 L4.12372904,49.230861 C4.12372904,49.6736585 4.48370111,50.0336306 4.92649861,50.0336306 L5.56361732,50.0336306 C9.05502786,50.0336306 12.1747858,52.1839062 13.513797,55.5107277 C13.5860038,55.6933684 13.6592724,55.8696379 13.7367885,56.0459075 C15.1575632,59.3674197 14.4769081,63.111554 12.0038256,65.5846364 L11.5546569,66.0338051 C11.4017484,66.1856517 11.318923,66.387406 11.318923,66.6019026 C11.318923,66.8163993 11.4017484,67.0181535 11.5546569,67.1689383 L16.8299999,72.4464049 C17.142188,72.7585931 17.651883,72.7617787 17.9661949,72.4453431 L18.4164254,71.9961744 C20.0304595,70.3810784 22.1881682,69.530525 24.4138362,69.530525 M34.769139,82 C33.155105,82 31.8415785,80.6875355 31.8415785,79.0735014 L31.8415785,78.4363827 C31.8415785,75.8178248 30.2148021,73.4700423 27.6971213,72.4570236 C27.5049239,72.3795075 27.3084789,72.2977439 27.1141577,72.2149185 C24.5996625,71.137126 21.7729792,71.6404498 19.9179019,73.4976508 L19.4676713,73.9478814 C18.3272288,75.087262 16.4710896,75.0893857 15.3285234,73.9478814 L10.0531805,68.6714766 C9.49994909,68.1203689 9.19519397,67.3844968 9.19519397,66.6019026 C9.19519397,65.8203703 9.49994909,65.0844982 10.0531805,64.5323287 L10.5023492,64.08316 C12.3584884,62.2270208 12.8607503,59.4013993 11.7850815,56.8837186 C11.7022561,56.6904592 11.6204925,56.4950761 11.5419146,56.2986312 C10.5299577,53.7851979 8.18217522,52.1573596 5.56361732,52.1573596 L4.92649861,52.1573596 C3.31246454,52.1573596 2,50.844895 2,49.230861 L2,41.769139 C2,40.1561668 3.31246454,38.8426404 4.92649861,38.8426404 L5.56361732,38.8426404 C8.18217522,38.8426404 10.5288958,37.215864 11.5429764,34.6971213 C11.6204925,34.503862 11.7022561,34.3084789 11.7850815,34.1141577 C12.8607503,31.5996625 12.3584884,28.774041 10.5023492,26.9179019 L10.0521186,26.4666095 C9.49994909,25.9155018 9.19519397,25.1796297 9.19519397,24.3980974 C9.19519397,23.6155032 9.49994909,22.8796311 10.0531805,22.3274616 L15.3285234,17.0531805 C16.4307388,15.9477795 18.3612085,15.9477795 19.4676713,17.0531805 L19.91684,17.5012873 C21.7751029,19.3584884 24.5986007,19.8607503 27.1162814,18.7850815 C27.3084789,18.7022561 27.5049239,18.6194307 27.6992451,18.5419146 C30.2148021,17.5299577 31.8415785,15.1821752 31.8415785,12.5636173 L31.8415785,11.9264986 C31.8415785,10.3124645 33.155105,9 34.769139,9 L42.230861,9 C43.844895,9 45.1584215,10.3124645 45.1584215,11.9264986 L45.1584215,12.5636173 C45.1584215,15.1821752 46.7851979,17.5299577 49.3028787,18.5429764 C49.4950761,18.6194307 49.6915211,18.7022561 49.8858423,18.7850815 C52.3971519,19.8618122 55.225959,19.3574265 57.08316,17.5023492 L57.5323287,17.0531805 C58.6387915,15.9477795 60.5681993,15.9477795 61.6725384,17.0531805 L66.9468195,22.3285234 C67.5000509,22.8796311 67.804806,23.6155032 67.804806,24.3980974 C67.804806,25.1796297 67.5000509,25.9155018 66.9468195,26.4676713 L66.4987127,26.91684 C64.6415116,28.774041 64.1392497,31.5996625 65.2149185,34.1162814 C65.2977439,34.3084789 65.3795075,34.503862 65.4580854,34.6992451 C66.4711042,37.215864 68.8178248,38.8426404 71.4363827,38.8426404 L72.0735014,38.8426404 C73.6875355,38.8426404 75,40.1561668 75,41.769139 L75,49.230861 C75,50.844895 73.6875355,52.1573596 72.0735014,52.1573596 L71.4363827,52.1573596 C68.8178248,52.1573596 66.4700423,53.7851979 65.4570236,56.3028787 C65.3795075,56.4950761 65.2977439,56.6904592 65.2149185,56.8858423 C64.1392497,59.4013993 64.6415116,62.2270208 66.4976508,64.08316 L66.9468195,64.5323287 C67.5000509,65.0844982 67.804806,65.8203703 67.804806,66.6019026 C67.804806,67.3844968 67.5000509,68.1203689 66.9468195,68.6725384 L61.6714766,73.9478814 C60.5320959,75.087262 58.6759568,75.0883239 57.5323287,73.9489432 L57.0820981,73.4965889 C55.2270208,71.6436354 52.4056468,71.137126 49.8837186,72.2149185 C49.6915211,72.2977439 49.4950761,72.3795075 49.3007549,72.4580854 C46.7851979,73.4700423 45.1584215,75.8178248 45.1584215,78.4363827 L45.1584215,79.0735014 C45.1584215,80.6875355 43.844895,82 42.230861,82 L34.769139,82 Z" id="Fill-30" fill="#7E2CFF"></path>
                <path d="M37.500529,26.1159335 C26.8116281,26.1159335 18.1159855,34.81242 18.1159855,45.5 C18.1159855,56.1886379 26.8116281,64.8840665 37.500529,64.8840665 C48.1894299,64.8840665 56.8840145,56.1886379 56.8840145,45.5 C56.8840145,34.81242 48.1894299,26.1159335 37.500529,26.1159335 M37.500529,67 C25.6446621,67 16,57.3545173 16,45.5 C16,33.6444248 25.6446621,24 37.500529,24 C49.3553379,24 59,33.6444248 59,45.5 C59,57.3545173 49.3553379,67 37.500529,67" id="Fill-32" fill="#7E2CFF"></path>
                <path d="M17.2924184,150.753206 C10.2358605,143.75748 10.2358605,132.310217 17.2924184,125.314491 L97.0476609,46.2467941 C104.104219,39.2510686 115.651024,39.2510686 122.707582,46.2467941 C129.764139,53.2414669 129.764139,64.6887305 122.707582,71.6855086 L42.9523391,150.753206 C35.8957813,157.748931 24.3489762,157.748931 17.2924184,150.753206" id="Fill-36" fill="#7E2CFF" opacity="0.165170243"></path>
            </g>
        </g>
    </g>
</svg>