<?xml version="1.0" encoding="UTF-8"?>
<svg width="202px" height="200px" viewBox="0 0 202 200" version="1.1" xmlns="http://www.w3.org/2000/svg" xmlns:xlink="http://www.w3.org/1999/xlink">
    <!-- Generator: Sketch 51.3 (57544) - http://www.bohemiancoding.com/sketch -->
    <title>Page 1</title>
    <desc>Created with Sketch.</desc>
    <defs>
        <polygon id="path-1" points="0.000228368794 0.299921053 160.96106 0.299921053 160.96106 173.999657 0.000228368794 173.999657"></polygon>
    </defs>
    <g id="Freja-Creative-Multi-Purpose-Portfolio-Template" stroke="none" stroke-width="1" fill="none" fill-rule="evenodd">
        <g id="HOMESCREEN" transform="translate(-230.000000, -5450.000000)">
            <g id="Page-1" transform="translate(343.500000, 5563.500000) rotate(45.000000) translate(-343.500000, -5563.500000) translate(220.000000, 5476.000000)">
                <path d="M179,76 C178.447,76 178,75.4945726 178,74.8692899 L178,47.1307101 C178,46.5054274 178.447,46 179,46 C179.553,46 180,46.5054274 180,47.1307101 L180,74.8692899 C180,75.4945726 179.553,76 179,76" id="Fill-1" fill="#7E2CFF"></path>
                <path d="M179,126 C178.447,126 178,125.494573 178,124.86929 L178,97.1307101 C178,96.5054274 178.447,96 179,96 C179.553,96 180,96.5054274 180,97.1307101 L180,124.86929 C180,125.494573 179.553,126 179,126" id="Fill-3" fill="#7E2CFF"></path>
                <path d="M196.560552,104.707107 C196.267107,104.707107 195.973662,104.59477 195.75014,104.371242 L186.04239,94.663261 C185.595346,94.2162055 185.595346,93.4906001 186.04239,93.0423984 C186.490581,92.5953429 187.216169,92.5953429 187.663214,93.0423984 L197.370963,102.750379 C197.819155,103.198581 197.819155,103.92304 197.370963,104.371242 C197.147441,104.59477 196.853996,104.707107 196.560552,104.707107" id="Fill-5" fill="#7E2CFF"></path>
                <path d="M170.858569,79 C170.566436,79 170.274303,78.8881545 170.051779,78.6656046 L160.333785,68.9475962 C159.888738,68.5024966 159.888738,67.7800656 160.333785,67.3338247 C160.779973,66.8887251 161.502318,66.8887251 161.947365,67.3338247 L171.665359,77.0518332 C172.111547,77.4980741 172.111547,78.2193637 171.665359,78.6656046 C171.442836,78.8881545 171.150703,79 170.858569,79" id="Fill-7" fill="#7E2CFF"></path>
                <path d="M160.439448,104.707107 C160.146004,104.707107 159.852559,104.59477 159.629037,104.371242 C159.180845,103.92304 159.180845,103.198581 159.629037,102.750379 L169.336786,93.0423984 C169.783831,92.5953429 170.509419,92.5953429 170.95761,93.0423984 C171.404654,93.4906001 171.404654,94.2162055 170.95761,94.663261 L161.24986,104.371242 C161.026338,104.59477 160.732893,104.707107 160.439448,104.707107" id="Fill-9" fill="#7E2CFF"></path>
                <path d="M186.141431,79 C185.849297,79 185.557164,78.8881545 185.334641,78.6656046 C184.888453,78.2193637 184.888453,77.4980741 185.334641,77.0518332 L195.052635,67.3338247 C195.497682,66.8887251 196.220027,66.8887251 196.666215,67.3338247 C197.111262,67.7800656 197.111262,68.5024966 196.666215,68.9475962 L186.948221,78.6656046 C186.725697,78.8881545 186.433564,79 186.141431,79" id="Fill-11" fill="#7E2CFF"></path>
                <path d="M193.811458,121 C193.34992,121 192.912172,120.747386 192.718279,120.324874 L184.097741,101.561053 C183.837233,100.995467 184.115584,100.337107 184.717487,100.092318 C185.32058,99.8464108 186.021214,100.109084 186.281721,100.67467 L194.902259,119.439608 C195.162767,120.005194 194.884416,120.663555 194.282513,120.908344 C194.129064,120.970938 193.968477,121 193.811458,121" id="Fill-13" fill="#7E2CFF"></path>
                <path d="M172.815411,72 C172.357044,72 171.92118,71.7366507 171.728121,71.2961816 L163.09732,51.6277215 C162.837934,51.0369336 163.115086,50.3505941 163.714398,50.0954017 C164.31371,49.8413746 165.011328,50.1117154 165.271898,50.7036686 L173.9027,70.373294 C174.162086,70.9629167 173.884933,71.6492561 173.284437,71.9044485 C173.132833,71.9697032 172.972937,72 172.815411,72" id="Fill-15" fill="#7E2CFF"></path>
                <path d="M144.119002,102 C143.685328,102 143.274009,101.731144 143.091821,101.281465 C142.847042,100.679513 143.108587,99.9788229 143.675269,99.7182944 L162.439482,91.0982535 C163.006164,90.8365355 163.66338,91.116098 163.90816,91.7180495 C164.15294,92.3211906 163.891394,93.0218812 163.32583,93.2824096 L144.561618,101.902451 C144.417432,101.96907 144.266541,102 144.119002,102" id="Fill-17" fill="#7E2CFF"></path>
                <path d="M194.166638,81 C193.714503,81 193.285674,80.7323022 193.09573,80.2845599 C192.84053,79.6852012 193.11321,78.9875287 193.704015,78.7281224 L213.371904,70.0978303 C213.963875,69.8372396 214.650235,70.1155979 214.90427,70.7149566 C215.15947,71.3154999 214.88679,72.0131724 214.295985,72.2725787 L194.628096,80.9028707 C194.477773,80.9692029 194.320458,81 194.166638,81" id="Fill-19" fill="#7E2CFF"></path>
                <path d="M213.840283,101 C213.69657,101 213.551698,100.974948 213.410304,100.91915 L193.728594,93.1962187 C193.135199,92.9627771 192.845455,92.3000308 193.083045,91.7169962 C193.320635,91.1328229 193.995158,90.848138 194.589712,91.0815796 L214.270263,98.8033716 C214.864817,99.0368132 215.154561,99.6995596 214.916971,100.283733 C214.735012,100.72898 214.299237,101 213.840283,101" id="Fill-21" fill="#7E2CFF"></path>
                <path d="M163.845936,81 C163.702924,81 163.558759,80.9750517 163.418053,80.9194849 L143.72618,73.1866374 C143.134524,72.9541643 142.846193,72.2941677 143.082625,71.713552 C143.319056,71.1318024 143.989138,70.8494327 144.581947,71.0807717 L164.27382,78.8124853 C164.865476,79.0449583 165.153807,79.704955 164.917375,80.2867046 C164.736303,80.7301045 164.302653,81 163.845936,81" id="Fill-23" fill="#7E2CFF"></path>
                <path d="M165.139515,122 C164.998306,122 164.855957,121.974502 164.717026,121.91771 C164.132828,121.680112 163.848132,121.006725 164.081583,120.410992 L171.803691,100.728618 C172.037142,100.135203 172.699916,99.8454497 173.282974,100.083048 C173.867172,100.320645 174.151868,100.994032 173.918417,101.589766 L166.197447,121.27098 C166.018658,121.724155 165.590474,122 165.139515,122" id="Fill-25" fill="#7E2CFF"></path>
                <path d="M185.134734,72 C184.994117,72 184.852366,71.9746262 184.714017,71.9181117 C184.132271,71.6816737 183.848769,71.0115739 184.081241,70.4187489 L191.812907,50.726348 C192.045378,50.133523 192.705371,49.8463374 193.285983,50.0827754 C193.867729,50.3192133 194.151231,50.9893132 193.918759,51.5821382 L186.188227,71.2745391 C186.010188,71.7255013 185.583801,72 185.134734,72" id="Fill-27" fill="#7E2CFF"></path>
                <path d="M245.269926,87 L183.558501,87 C182.926854,87 182.414214,86.553 182.414214,86 C182.414214,85.447 182.926854,85 183.558501,85 L245.269926,85 C245.902717,85 246.414214,85.447 246.414214,86 C246.414214,86.553 245.902717,87 245.269926,87" id="Fill-29" fill="#7E2CFF"></path>
                <path d="M167.86929,87 L140.13071,87 C139.505427,87 139,86.553 139,86 C139,85.447 139.505427,85 140.13071,85 L167.86929,85 C168.494573,85 169,85.447 169,86 C169,86.553 168.494573,87 167.86929,87" id="Fill-31" fill="#7E2CFF"></path>
                <path d="M178.5,77.2990804 C173.427079,77.2990804 169.29908,81.4270792 169.29908,86.5 C169.29908,91.5729208 173.427079,95.7009196 178.5,95.7009196 C183.572921,95.7009196 187.70092,91.5729208 187.70092,86.5 C187.70092,81.4270792 183.572921,77.2990804 178.5,77.2990804 M178.5,98 C172.157987,98 167,92.8420132 167,86.5 C167,80.1579868 172.157987,75 178.5,75 C184.842013,75 190,80.1579868 190,86.5 C190,92.8420132 184.842013,98 178.5,98" id="Fill-33" fill="#7E2CFF"></path>
                <path d="M179.5,84.4167562 C178.352041,84.4167562 177.416756,85.3508324 177.416756,86.5012084 C177.416756,87.6491676 178.352041,88.5832438 179.5,88.5832438 C180.647959,88.5832438 181.583244,87.6491676 181.583244,86.5012084 C181.583244,85.3508324 180.647959,84.4167562 179.5,84.4167562 M179.5,91 C177.0192,91 175,88.9808002 175,86.5012084 C175,84.0191998 177.0192,82 179.5,82 C181.9808,82 184,84.0191998 184,86.5012084 C184,88.9808002 181.9808,91 179.5,91" id="Fill-35" fill="#7E2CFF"></path>
                <g id="Group-39">
                    <mask id="mask-2" fill="white">
                        <use xlink:href="#path-1"></use>
                    </mask>
                    <g id="Clip-38"></g>
                    <path d="M52.7534199,38.7902092 C52.3903135,38.7902092 52.0329163,38.6173539 51.8113986,38.2933934 C51.6755191,38.0964987 51.610434,37.8686961 51.610434,37.6454724 C51.610434,37.2814461 51.7828525,36.9231434 52.1059943,36.7022092 C62.2889589,29.6849724 74.2280794,25.976025 86.6319305,25.976025 C94.0870298,25.976025 101.369711,27.3084987 108.277867,29.9379592 C108.733462,30.1108145 109.014356,30.5458145 109.014356,31.0071434 C109.014356,31.1422224 108.991519,31.2795908 108.940136,31.413525 C108.716335,32.0042092 108.057491,32.3041303 107.468299,32.0774724 C100.820484,29.5476039 93.8095617,28.2654987 86.6319305,28.2654987 C74.6916681,28.2654987 63.1990085,31.8347882 53.3985617,38.5887355 C53.2021645,38.7249592 52.9760794,38.7902092 52.7534199,38.7902092 M134.388413,52.0748803 C134.042434,52.0748803 133.702165,51.9191961 133.477221,51.6215645 C130.08937,47.138775 126.087207,43.1676829 121.580349,39.8181829 C121.074512,39.4415645 120.968321,38.7238145 121.342845,38.2166961 C121.719654,37.7095776 122.43559,37.6054066 122.941427,37.9785908 C127.620704,41.4585908 131.778157,45.5830776 135.297321,50.2398671 C135.678696,50.7424066 135.579356,51.4613013 135.076945,51.8424987 C134.870271,51.9993276 134.6282,52.0748803 134.388413,52.0748803 M63.4410794,63.0437487 C61.175661,63.0437487 59.331583,64.8936434 59.331583,67.1659461 C59.331583,69.4371039 61.175661,71.2869987 63.4410794,71.2869987 C65.7076397,71.2869987 67.5517177,69.4371039 67.5517177,67.1659461 C67.5517177,64.8936434 65.7076397,63.0437487 63.4410794,63.0437487 M63.4410794,73.5764724 C59.9150652,73.5764724 57.047895,70.7008934 57.047895,67.1659461 C57.047895,63.6309987 59.9150652,60.754275 63.4410794,60.754275 C66.9670936,60.754275 69.8354057,63.6309987 69.8354057,67.1659461 C69.8354057,70.7008934 66.9670936,73.5764724 63.4410794,73.5764724 M26.7524908,88.2943539 C26.1221929,88.2943539 25.6106468,87.7826566 25.6106468,87.1496171 C25.6106468,71.8776829 31.2547816,57.2559592 41.5016894,45.9745776 C41.9275972,45.507525 42.6492426,45.4731829 43.1151149,45.899025 C43.362895,46.1245382 43.4884979,46.4359066 43.4884979,46.7461303 C43.4884979,47.0208671 43.3902993,47.2967487 43.1904766,47.5153934 C33.3260865,58.3743671 27.8943348,72.4500513 27.8943348,87.1496171 C27.8943348,87.7826566 27.3839305,88.2943539 26.7524908,88.2943539 M86.869434,76.5287487 C80.9409801,76.5287487 76.1166894,81.3641171 76.1166894,87.3098803 C76.1166894,93.2533539 80.9409801,98.0898671 86.869434,98.0898671 C92.7990298,98.0898671 97.6233206,93.2533539 97.6233206,87.3098803 C97.6233206,81.3641171 92.7990298,76.5287487 86.869434,76.5287487 M86.869434,100.379341 C79.6815262,100.379341 73.8330014,94.5159987 73.8330014,87.3098803 C73.8330014,80.1026171 79.6815262,74.239275 86.869434,74.239275 C94.0584837,74.239275 99.9070085,80.1026171 99.9070085,87.3098803 C99.9070085,94.5159987 94.0584837,100.379341 86.869434,100.379341 M48.0398879,91.9575118 C47.5020794,91.9575118 46.9688383,92.0674066 46.4618596,92.2849066 C44.4259518,93.1652092 43.4827887,95.5405382 44.3597248,97.5816039 L50.5176894,111.914854 C51.3957674,113.954775 53.7673773,114.901472 55.8010014,114.02117 C56.7807035,113.598762 57.5411716,112.811183 57.9396752,111.807249 C58.3381787,110.803314 58.3244766,109.708946 57.9031362,108.725617 L51.7451716,94.3923671 C51.3226894,93.4090382 50.5382426,92.6477882 49.5368454,92.248275 C49.0515617,92.0548145 48.544583,91.9575118 48.0398879,91.9575118 M54.2195475,116.639183 C51.7771433,116.639183 49.4466397,115.208262 48.4212638,112.820341 L42.2621574,98.4870908 C41.5976043,96.9416961 41.5770511,95.2257355 42.2004979,93.6528671 C42.8250865,92.0811434 44.0183135,90.8494066 45.558661,90.1831697 C47.0990085,89.5169329 48.8129163,89.4940382 50.3806681,90.1213539 C51.9495617,90.7463803 53.1781858,91.9426303 53.8415972,93.4868803 L59.9995617,107.82013 C61.3754837,111.020814 59.8967957,114.745788 56.7042,116.124051 C55.8946326,116.473196 55.0508099,116.639183 54.2195475,116.639183 M35.7445121,119.947472 C35.3631362,119.947472 34.9886113,119.756301 34.7728028,119.407157 C30.643895,112.748222 27.8692142,105.464262 26.5252638,97.7578934 C26.5149872,97.6903539 26.509278,97.6251039 26.509278,97.5587092 C26.509278,97.0126697 26.8986468,96.5295908 27.4547248,96.4322882 C28.0747461,96.3246829 28.6662213,96.7413671 28.7758383,97.3641039 C30.0684057,104.779709 32.7391787,111.790078 36.7127957,118.19717 C36.8292638,118.384907 36.8852142,118.594393 36.8852142,118.800446 C36.886356,119.182788 36.6945262,119.557117 36.3462638,119.774617 C36.1578596,119.89138 35.950044,119.947472 35.7445121,119.947472 M107.149725,126.238946 C106.74437,126.238946 106.351576,126.021446 106.144902,125.640249 C106.051271,125.467393 106.006739,125.279657 106.006739,125.095354 C106.006739,124.688972 106.222548,124.295183 106.602782,124.087986 C120.129065,116.720459 128.531895,102.566933 128.531895,87.1496171 C128.531895,83.8539197 128.151661,80.6475118 127.432299,77.5693145 L118.884455,80.1255118 C118.861618,80.1323803 118.839923,80.1392487 118.817087,80.1438276 C119.305796,82.4035382 119.563852,84.7468145 119.563852,87.1496171 C119.563852,94.3248276 117.306427,101.147459 113.038214,106.881446 C112.661406,107.389709 111.944328,107.492736 111.439633,107.116117 C111.139328,106.890604 110.980611,106.546038 110.980611,106.198038 C110.980611,105.959933 111.054831,105.719538 111.206696,105.513486 C115.180313,100.176722 117.280165,93.8268671 117.280165,87.1496171 C117.280165,76.0078934 111.333441,66.2318408 102.454462,60.8447092 C102.444186,60.8721829 102.430484,60.8996566 102.41564,60.928275 L98.6030227,68.2523013 C98.5813277,68.2935118 98.5573489,68.3347224 98.5310865,68.3724987 C104.717597,72.3264197 108.827094,79.2646697 108.827094,87.1496171 C108.827094,87.7826566 108.316689,88.2943539 107.68525,88.2943539 C107.054952,88.2943539 106.543406,87.7826566 106.543406,87.1496171 C106.543406,76.1429724 97.6107603,67.1876961 86.6319305,67.1876961 C86.0004908,67.1876961 85.4900865,66.6748539 85.4900865,66.0429592 C85.4900865,65.4099197 86.0004908,64.8982224 86.6319305,64.8982224 C90.1944837,64.8982224 93.5652071,65.7441829 96.5522709,67.2460776 C96.5602638,67.2289066 96.5693986,67.2105908 96.5785333,67.1934197 L100.39115,59.8682487 C100.415129,59.8224592 100.441391,59.7789592 100.469938,59.7388934 C96.3102,57.6188408 91.6069447,56.4237355 86.6319305,56.4237355 C86.0004908,56.4237355 85.4900865,55.9120382 85.4900865,55.2789987 C85.4900865,54.6471039 86.0004908,54.1342618 86.6319305,54.1342618 C101.598079,54.1342618 114.264555,64.1942092 118.255299,77.9253276 L126.851101,75.3542487 C121.755051,57.9141829 105.652767,45.1434987 86.6319305,45.1434987 C86.0004908,45.1434987 85.4900865,44.6318013 85.4900865,43.9987618 C85.4900865,43.3657224 86.0004908,42.854025 86.6319305,42.854025 C110.995455,42.854025 130.815583,62.7243671 130.815583,87.1496171 C130.815583,103.406025 121.954874,118.331104 107.693243,126.100433 C107.520824,126.194301 107.333562,126.238946 107.149725,126.238946 M47.0384908,147.161301 C46.8192567,147.161301 46.5954553,147.097196 46.4013418,146.965551 C26.5366823,133.511459 14.6774908,111.15017 14.6774908,87.1496171 C14.6774908,47.3745908 46.956278,15.014025 86.6319305,15.014025 C100.777094,15.014025 114.465519,19.1259197 126.220803,26.9044066 C126.554221,27.1264855 126.734633,27.4905118 126.733491,27.8625513 C126.733491,28.0789066 126.671831,28.2975513 126.545087,28.4910118 C126.197966,29.0175908 125.490023,29.1629724 124.962491,28.8161171 C113.581732,21.2848934 100.327207,17.3034987 86.6319305,17.3034987 C48.2145901,17.3034987 16.9611787,48.6372355 16.9611787,87.1496171 C16.9611787,110.38892 28.4447035,132.040472 47.6790652,145.067578 C48.0056326,145.288512 48.1814766,145.650249 48.1814766,146.017709 C48.1814766,146.237499 48.1175333,146.461867 47.9862213,146.657617 C47.7658454,146.985012 47.4050227,147.161301 47.0384908,147.161301 M86.6319305,148.325499 C69.2998809,148.325499 52.7260156,140.895012 41.1568525,127.942314 C40.9615972,127.72367 40.8656823,127.452367 40.8656823,127.181064 C40.8656823,126.865117 40.9935688,126.552604 41.2459163,126.325946 C41.7140723,125.904683 42.4368596,125.943604 42.8582,126.415236 C53.9946043,138.883709 69.9495901,146.036025 86.6319305,146.036025 C103.869207,146.036025 120.172455,138.483051 131.363668,125.315143 C131.771306,124.832064 132.49181,124.774828 132.972526,125.186933 C133.237434,125.412446 133.373313,125.734117 133.373313,126.058078 C133.373313,126.321367 133.28425,126.584657 133.100413,126.799867 C121.477583,140.479472 104.53947,148.325499 86.6319305,148.325499 M86.6319305,159.286354 C75.7044837,159.286354 65.2075121,156.892709 55.4367532,152.172959 C55.0268312,151.97492 54.7893277,151.566249 54.7893277,151.140407 C54.7893277,150.973275 54.8247248,150.804999 54.9023702,150.644736 C55.1786965,150.074657 55.8603773,149.835407 56.4267319,150.108999 C65.8880511,154.678788 76.0493206,156.99688 86.6319305,156.99688 C110.127654,156.99688 131.887774,145.235854 144.838569,125.536078 C145.185689,125.010643 145.891349,124.862972 146.420023,125.210972 C146.946413,125.558972 147.091427,126.268709 146.744306,126.797578 C133.37103,147.140696 110.898399,159.286354 86.6319305,159.286354 M86.6319305,173.999657 C38.8628879,173.999657 0.000228368794,135.038538 0.000228368794,87.1496171 C0.000228368794,39.2606961 38.8628879,0.299577632 86.6319305,0.299577632 C115.366434,0.299577632 142.174647,14.5469724 158.340874,38.4135908 C158.694845,38.9367355 158.558966,39.6476171 158.037143,40.0036303 C157.516462,40.3596434 156.806235,40.2234197 156.451122,39.6991303 C140.709661,16.4621171 114.609391,2.58905132 86.6319305,2.58905132 C40.1212,2.58905132 2.28391631,40.5233408 2.28391631,87.1496171 C2.28391631,133.777038 40.1212,171.710183 86.6319305,171.710183 C116.410079,171.710183 143.405555,156.441683 158.842143,130.867117 C159.167569,130.325657 159.870945,130.153946 160.409895,130.480196 C160.949987,130.807591 161.122406,131.510459 160.795838,132.05192 C144.941335,158.317907 117.216221,173.999657 86.6319305,173.999657" id="Fill-37" fill="#7E2CFF" mask="url(#mask-2)"></path>
                </g>
                <path d="M63.5,63.3214286 C61.1971429,63.3214286 59.3214286,65.1959821 59.3214286,67.5011607 C59.3214286,69.8040179 61.1971429,71.6785714 63.5,71.6785714 C65.8028571,71.6785714 67.6785714,69.8040179 67.6785714,67.5011607 C67.6785714,65.1959821 65.8028571,63.3214286 63.5,63.3214286 M63.5,74 C59.9157143,74 57,71.0842857 57,67.5011607 C57,63.916875 59.9157143,61 63.5,61 C67.0842857,61 70,63.916875 70,67.5011607 C70,71.0842857 67.0842857,74 63.5,74" id="Fill-40" fill="#7E2CFF"></path>
                <path d="M86.9994307,76.277206 C81.0878038,76.277206 76.277206,81.0878038 76.277206,87.0005693 C76.277206,92.9121962 81.0878038,97.722794 86.9994307,97.722794 C92.9121962,97.722794 97.722794,92.9121962 97.722794,87.0005693 C97.722794,81.0878038 92.9121962,76.277206 86.9994307,76.277206 M86.9994307,100 C79.8319247,100 74,94.1680753 74,87.0005693 C74,79.8319247 79.8319247,74 86.9994307,74 C94.1680753,74 100,79.8319247 100,87.0005693 C100,94.1680753 94.1680753,100 86.9994307,100" id="Fill-42" fill="#7E2CFF"></path>
                <path d="M46.3148526,90.5693394 L46.3264139,90.5693394 L46.3148526,90.5693394 Z M48.3693006,91.2935723 C47.8259182,91.2935723 47.284848,91.4035824 46.7726812,91.6213106 L46.7726812,91.6224566 C44.7101402,92.5025371 43.7551745,94.8803588 44.6442406,96.9235666 L50.8781089,111.270712 C51.7671751,113.31392 54.168463,114.261611 56.2275355,113.379239 C57.2206537,112.956388 57.9906381,112.169128 58.3929723,111.16414 C58.7964627,110.159152 58.7825891,109.063636 58.3559761,108.078129 L52.1209517,93.7309828 C51.6931826,92.745476 50.8989193,91.9834271 49.8849908,91.5846406 C49.3936343,91.3909771 48.8814675,91.2935723 48.3693006,91.2935723 Z M54.6262916,115.999999 C52.1521673,116.001145 49.7948124,114.567577 48.755449,112.17715 L42.5204246,97.8300037 C41.1284407,94.6248146 42.6256327,90.8959318 45.857024,89.5162222 C47.4178033,88.8515781 49.1508464,88.8263674 50.739373,89.4543416 C52.3278995,90.0800238 53.5718984,91.2775292 54.2436116,92.8245457 L60.478636,107.171692 C61.1515053,108.718708 61.1734718,110.437615 60.5422233,112.010989 C59.9098186,113.585508 58.702816,114.818537 57.1420366,115.484327 C56.3223384,115.834984 55.4668001,115.999999 54.6262916,115.999999 Z" id="Fill-44" fill="#7E2CFF"></path>
                <path d="M99,87.0005669 C99,93.6278641 93.6276103,99 87,99 C80.3723897,99 75,93.6278641 75,87.0005669 C75,80.3721359 80.3723897,75 87,75 C93.6276103,75 99,80.3721359 99,87.0005669" id="Fill-46" fill="#7E2CFF" opacity="0.50833722"></path>
                <path d="M69,67 C69,69.7613504 66.7613504,72 64,72 C61.2386496,72 59,69.7613504 59,67 C59,64.2386496 61.2386496,62 64,62 C66.7613504,62 69,64.2386496 69,67" id="Fill-48" fill="#7E2CFF" opacity="0.50833722"></path>
                <path d="M190,85.9994175 C190,92.0757744 185.07487,97 179.001165,97 C172.92513,97 168,92.0757744 168,85.9994175 C168,79.9242256 172.92513,75 179.001165,75 C185.07487,75 190,79.9242256 190,85.9994175" id="Fill-50" fill="#7E2CFF" opacity="0.214435634"></path>
                <path d="M56.0820078,114.595714 C53.627124,115.665585 50.7404367,114.537606 49.6677816,112.090236 L43.4054863,97.8036505 C42.3328312,95.3540008 43.4626032,92.4748079 45.9186293,91.4049376 C48.373513,90.333928 51.259058,91.4619062 52.3328554,93.9104165 L58.5940084,108.197002 C59.6678058,110.645512 58.5368915,113.525844 56.0820078,114.595714" id="Fill-52" fill="#7E2CFF"></path>
            </g>
        </g>
    </g>
</svg>