<?xml version="1.0" encoding="UTF-8"?>
<svg width="236px" height="179px" viewBox="0 0 236 179" version="1.1" xmlns="http://www.w3.org/2000/svg" xmlns:xlink="http://www.w3.org/1999/xlink">
    <!-- Generator: Sketch 51.3 (57544) - http://www.bohemiancoding.com/sketch -->
    <title>Page 1</title>
    <desc>Created with Sketch.</desc>
    <defs>
        <polygon id="path-1" points="0 179 236 179 236 0 0 0"></polygon>
    </defs>
    <g id="Freja-Creative-Multi-Purpose-Portfolio-Template" stroke="none" stroke-width="1" fill="none" fill-rule="evenodd">
        <g id="HOMESCREEN" transform="translate(-991.000000, -5455.000000)">
            <g id="Page-1" transform="translate(991.000000, 5455.000000)">
                <path d="M142.773909,66 L130.226091,66 C129.548063,66 129,65.553 129,65 C129,64.447 129.548063,64 130.226091,64 L142.773909,64 C143.451937,64 144,64.447 144,65 C144,65.553 143.451937,66 142.773909,66 Z" id="Fill-1" fill="#7E2CFF"></path>
                <path d="M142.773909,78 L130.226091,78 C129.548063,78 129,77.553 129,77 C129,76.447 129.548063,76 130.226091,76 L142.773909,76 C143.451937,76 144,76.447 144,77 C144,77.553 143.451937,78 142.773909,78" id="Fill-3" fill="#7E2CFF"></path>
                <path d="M163.80597,91 L130.19403,91 C129.533731,91 129,90.553 129,90 C129,89.447 129.533731,89 130.19403,89 L163.80597,89 C164.466269,89 165,89.447 165,90 C165,90.553 164.466269,91 163.80597,91" id="Fill-5" fill="#7E2CFF"></path>
                <path d="M142.773909,104 L130.226091,104 C129.548063,104 129,103.553 129,103 C129,102.447 129.548063,102 130.226091,102 L142.773909,102 C143.451937,102 144,102.447 144,103 C144,103.553 143.451937,104 142.773909,104" id="Fill-7" fill="#7E2CFF"></path>
                <path d="M142.773909,116 L130.226091,116 C129.548063,116 129,115.553 129,115 C129,114.447 129.548063,114 130.226091,114 L142.773909,114 C143.451937,114 144,114.447 144,115 C144,115.553 143.451937,116 142.773909,116" id="Fill-9" fill="#7E2CFF"></path>
                <path d="M122,146 C121.447,146 121,145.451982 121,144.774009 L121,132.225991 C121,131.548018 121.447,131 122,131 C122.553,131 123,131.548018 123,132.225991 L123,144.774009 C123,145.451982 122.553,146 122,146" id="Fill-11" fill="#7E2CFF"></path>
                <path d="M110,146 C109.447,146 109,145.451982 109,144.774009 L109,132.225991 C109,131.548018 109.447,131 110,131 C110.553,131 111,131.548018 111,132.225991 L111,144.774009 C111,145.451982 110.553,146 110,146" id="Fill-13" fill="#7E2CFF"></path>
                <path d="M99,146 C98.447,146 98,145.451982 98,144.774009 L98,132.225991 C98,131.548018 98.447,131 99,131 C99.553,131 100,131.548018 100,132.225991 L100,144.774009 C100,145.451982 99.553,146 99,146" id="Fill-15" fill="#7E2CFF"></path>
                <path d="M87,146 C86.447,146 86,145.451982 86,144.774009 L86,132.225991 C86,131.548018 86.447,131 87,131 C87.553,131 88,131.548018 88,132.225991 L88,144.774009 C88,145.451982 87.553,146 87,146" id="Fill-17" fill="#7E2CFF"></path>
                <path d="M77,146 C76.447,146 76,145.451982 76,144.774009 L76,132.225991 C76,131.548018 76.447,131 77,131 C77.553,131 78,131.548018 78,132.225991 L78,144.774009 C78,145.451982 77.553,146 77,146" id="Fill-19" fill="#7E2CFF"></path>
                <path d="M65,146 C64.447,146 64,145.451982 64,144.774009 L64,132.225991 C64,131.548018 64.447,131 65,131 C65.553,131 66,131.548018 66,132.225991 L66,144.774009 C66,145.451982 65.553,146 65,146" id="Fill-21" fill="#7E2CFF"></path>
                <path d="M53,146 C52.447,146 52,145.451982 52,144.774009 L52,132.225991 C52,131.548018 52.447,131 53,131 C53.553,131 54,131.548018 54,132.225991 L54,144.774009 C54,145.451982 53.553,146 53,146" id="Fill-23" fill="#7E2CFF"></path>
                <path d="M43.7921455,123 L11.2078545,123 C10.5411188,123 10,122.553 10,122 C10,121.447 10.5411188,121 11.2078545,121 L43.7921455,121 C44.460089,121 45,121.447 45,122 C45,122.553 44.460089,123 43.7921455,123" id="Fill-25" fill="#7E2CFF"></path>
                <path d="M42.8089161,112 L24.1910839,112 C23.5324145,112 23,111.553 23,111 C23,110.447 23.5324145,110 24.1910839,110 L42.8089161,110 C43.4675855,110 44,110.447 44,111 C44,111.553 43.4675855,112 42.8089161,112" id="Fill-27" fill="#7E2CFF"></path>
                <path d="M43.7921455,101 L11.2078545,101 C10.5411188,101 10,100.553 10,100 C10,99.447 10.5411188,99 11.2078545,99 L43.7921455,99 C44.460089,99 45,99.447 45,100 C45,100.553 44.460089,101 43.7921455,101" id="Fill-29" fill="#7E2CFF"></path>
                <path d="M42.8089161,90 L24.1910839,90 C23.5324145,90 23,89.553 23,89 C23,88.447 23.5324145,88 24.1910839,88 L42.8089161,88 C43.4675855,88 44,88.447 44,89 C44,89.553 43.4675855,90 42.8089161,90" id="Fill-31" fill="#7E2CFF"></path>
                <path d="M43.7921455,78 L11.2078545,78 C10.5411188,78 10,77.553 10,77 C10,76.447 10.5411188,76 11.2078545,76 L43.7921455,76 C44.460089,76 45,76.447 45,77 C45,77.553 44.460089,78 43.7921455,78" id="Fill-33" fill="#7E2CFF"></path>
                <path d="M74,47 C73.447,47 73,46.4630718 73,45.7988183 L73,11.2011817 C73,10.5381294 73.447,10 74,10 C74.553,10 75,10.5381294 75,11.2011817 L75,45.7988183 C75,46.4630718 74.553,47 74,47" id="Fill-35" fill="#7E2CFF"></path>
                <path d="M86,47 C85.447,47 85,46.4635387 85,45.7998628 L85,27.2001372 C85,26.5364613 85.447,26 86,26 C86.553,26 87,26.5364613 87,27.2001372 L87,45.7998628 C87,46.4635387 86.553,47 86,47" id="Fill-37" fill="#7E2CFF"></path>
                <path d="M97,47 C96.447,47 96,46.4630718 96,45.7988183 L96,11.2011817 C96,10.5381294 96.447,10 97,10 C97.553,10 98,10.5381294 98,11.2011817 L98,45.7988183 C98,46.4630718 97.553,47 97,47" id="Fill-39" fill="#7E2CFF"></path>
                <path d="M108,47 C107.447,47 107,46.4635387 107,45.7998628 L107,27.2001372 C107,26.5364613 107.447,26 108,26 C108.553,26 109,26.5364613 109,27.2001372 L109,45.7998628 C109,46.4635387 108.553,47 108,47" id="Fill-41" fill="#7E2CFF"></path>
                <path d="M120,47 C119.447,47 119,46.4630718 119,45.7988183 L119,11.2011817 C119,10.5381294 119.447,10 120,10 C120.553,10 121,10.5381294 121,11.2011817 L121,45.7988183 C121,46.4630718 120.553,47 120,47" id="Fill-43" fill="#7E2CFF"></path>
                <path d="M44.7650758,67 C44.4490142,67 44.1329527,66.8790053 43.8922026,66.6382507 L30.362051,53.107838 C29.8793163,52.625094 29.8793163,51.844802 30.362051,51.362058 C30.8447857,50.879314 31.6250627,50.879314 32.1077974,51.362058 L45.637949,64.8924706 C46.1206837,65.3752146 46.1206837,66.1555067 45.637949,66.6382507 C45.397199,66.8790053 45.0811374,67 44.7650758,67" id="Fill-45" fill="#7E2CFF"></path>
                <path d="M52.8373086,56 C52.539734,56 52.2421594,55.8860834 52.0154912,55.6594128 L28.340874,31.984531 C27.8863753,31.5300272 27.8863753,30.7942192 28.340874,30.3408778 C28.7942103,29.8863741 29.5300101,29.8863741 29.9845088,30.3408778 L53.659126,54.0157596 C54.1136247,54.4702634 54.1136247,55.204909 53.659126,55.6594128 C53.4324578,55.8860834 53.1348832,56 52.8373086,56" id="Fill-47" fill="#7E2CFF"></path>
                <path d="M63.7650758,48 C63.4490142,48 63.1329527,47.8790053 62.8922026,47.6382507 L49.362051,34.107838 C48.8793163,33.625094 48.8793163,32.844802 49.362051,32.362058 C49.8447857,31.879314 50.6250627,31.879314 51.1077974,32.362058 L64.637949,45.8924706 C65.1206837,46.3752146 65.1206837,47.1555067 64.637949,47.6382507 C64.397199,47.8790053 64.0811374,48 63.7650758,48" id="Fill-49" fill="#7E2CFF"></path>
                <path d="M45.3672459,130.632754 L128.632754,130.632754 L128.632754,47.3672459 L65.0461613,47.3672459 L45.3672459,67.4450422 L45.3672459,130.632754 Z M129.816377,133 L44.183623,133 C43.5290795,133 43,132.470921 43,131.816377 L43,66.9621241 C43,66.6520148 43.1219132,66.3549255 43.3385162,66.133588 L63.7039329,45.3550869 C63.926454,45.1290149 64.2318287,45 64.5490397,45 L129.816377,45 C130.469737,45 131,45.5302631 131,46.183623 L131,131.816377 C131,132.470921 130.469737,133 129.816377,133 Z" id="Fill-51" fill="#7E2CFF"></path>
                <path d="M79.5,99.3331305 C74.4452729,99.3331305 70.3331305,103.444106 70.3331305,108.498833 C70.3331305,113.553561 74.4452729,117.66687 79.5,117.66687 C84.5547271,117.66687 88.6668695,113.553561 88.6668695,108.498833 C88.6668695,103.444106 84.5547271,99.3331305 79.5,99.3331305 M79.5,120 C73.1585514,120 68,114.840282 68,108.498833 C68,102.158551 73.1585514,97 79.5,97 C85.8414486,97 91,102.158551 91,108.498833 C91,114.840282 85.8414486,120 79.5,120" id="Fill-53" fill="#7E2CFF"></path>
                <mask id="mask-2" fill="white">
                    <use xlink:href="#path-1"></use>
                </mask>
                <g id="Clip-56"></g>
                <path d="M70.3207709,87.5573093 L88.6792291,87.5573093 L88.6792291,79.4414694 L70.3207709,79.4414694 L70.3207709,87.5573093 Z M89.8396146,90 L69.1603854,90 C68.5186923,90 68,89.4540586 68,88.7786546 L68,78.2213454 C68,77.5459414 68.5186923,77 69.1603854,77 L89.8396146,77 C90.4813077,77 91,77.5459414 91,78.2213454 L91,88.7786546 C91,89.4540586 90.4813077,90 89.8396146,90 Z" id="Fill-55" fill="#7E2CFF" mask="url(#mask-2)"></path>
                <path d="M105.421796,117.603418 L112.578204,117.603418 L112.578204,99.3977806 L105.421796,99.3977806 L105.421796,117.603418 Z M113.789102,120 L104.210898,120 C103.542482,120 103,119.463166 103,118.801709 L103,98.1982911 C103,97.5368344 103.542482,97 104.210898,97 L113.789102,97 C114.458729,97 115,97.5368344 115,98.1982911 L115,118.801709 C115,119.463166 114.458729,120 113.789102,120 Z" id="Fill-57" fill="#7E2CFF" mask="url(#mask-2)"></path>
                <path d="M70.3207709,68.5575388 L88.6792291,68.5575388 L88.6792291,60.4424612 L70.3207709,60.4424612 L70.3207709,68.5575388 Z M89.8396146,71 L69.1603854,71 C68.5186923,71 68,70.4528887 68,69.7787694 L68,59.2212306 C68,58.5458901 68.5186923,58 69.1603854,58 L89.8396146,58 C90.4813077,58 91,58.5458901 91,59.2212306 L91,69.7787694 C91,70.4528887 90.4813077,71 89.8396146,71 Z" id="Fill-58" fill="#7E2CFF" mask="url(#mask-2)"></path>
                <path d="M113.783683,60 L103.216317,60 C102.543694,60 102,59.553 102,59 C102,58.447 102.543694,58 103.216317,58 L113.783683,58 C114.456306,58 115,58.447 115,59 C115,59.553 114.456306,60 113.783683,60" id="Fill-59" fill="#7E2CFF" mask="url(#mask-2)"></path>
                <path d="M113.783683,67 L103.216317,67 C102.543694,67 102,66.553 102,66 C102,65.447 102.543694,65 103.216317,65 L113.783683,65 C114.456306,65 115,65.447 115,66 C115,66.553 114.456306,67 113.783683,67" id="Fill-60" fill="#7E2CFF" mask="url(#mask-2)"></path>
                <path d="M113.783683,75 L103.216317,75 C102.543694,75 102,74.553 102,74 C102,73.447 102.543694,73 103.216317,73 L113.783683,73 C114.456306,73 115,73.447 115,74 C115,74.553 114.456306,75 113.783683,75" id="Fill-61" fill="#7E2CFF" mask="url(#mask-2)"></path>
                <path d="M113.783683,83 L103.216317,83 C102.543694,83 102,82.553 102,82 C102,81.447 102.543694,81 103.216317,81 L113.783683,81 C114.456306,81 115,81.447 115,82 C115,82.553 114.456306,83 113.783683,83" id="Fill-62" fill="#7E2CFF" mask="url(#mask-2)"></path>
                <path d="M113.783683,91 L103.216317,91 C102.543694,91 102,90.553 102,90 C102,89.447 102.543694,89 103.216317,89 L113.783683,89 C114.456306,89 115,89.447 115,90 C115,90.553 114.456306,91 113.783683,91" id="Fill-63" fill="#7E2CFF" mask="url(#mask-2)"></path>
                <path d="M57,120 C56.447,120 56,119.47408 56,118.823445 L56,72.1765553 C56,71.5259202 56.447,71 57,71 C57.553,71 58,71.5259202 58,72.1765553 L58,118.823445 C58,119.47408 57.553,120 57,120" id="Fill-64" fill="#7E2CFF" mask="url(#mask-2)"></path>
                <path d="M64.7523394,167 C64.062383,167 63.5046787,166.472172 63.5046787,165.819177 L63.5046787,159.286861 L52.4641298,150.858144 C52.1709295,150.634968 52,150.296072 52,149.939463 L52,138.180823 C52,137.527828 52.558952,137 53.2476606,137 C53.937617,137 54.4953213,137.527828 54.4953213,138.180823 L54.4953213,149.373849 L65.5358702,157.802566 C65.8290705,158.025742 66,158.364638 66,158.721247 L66,165.819177 C66,166.472172 65.4422957,167 64.7523394,167" id="Fill-65" fill="#7E2CFF" mask="url(#mask-2)"></path>
                <path d="M110.247661,167 C109.557704,167 109,166.472172 109,165.819177 L109,158.721247 C109,158.364638 109.17093,158.025742 109.46413,157.802566 L120.504679,149.373849 L120.504679,138.180823 C120.504679,137.527828 121.062383,137 121.752339,137 C122.441048,137 123,137.527828 123,138.180823 L123,149.939463 C123,150.296072 122.82907,150.634968 122.53587,150.858144 L111.495321,159.286861 L111.495321,165.819177 C111.495321,166.472172 110.937617,167 110.247661,167" id="Fill-66" fill="#7E2CFF" mask="url(#mask-2)"></path>
                <path d="M87,167 C86.447,167 86,166.466339 86,165.806129 L86,132.193871 C86,131.533661 86.447,131 87,131 C87.553,131 88,131.533661 88,132.193871 L88,165.806129 C88,166.466339 87.553,167 87,167" id="Fill-67" fill="#7E2CFF" mask="url(#mask-2)"></path>
                <path d="M65.5,168.473364 C63.280156,168.473364 61.4733638,170.280156 61.4733638,172.5 C61.4733638,174.719844 63.280156,176.526636 65.5,176.526636 C67.719844,176.526636 69.5266362,174.719844 69.5266362,172.5 C69.5266362,170.280156 67.719844,168.473364 65.5,168.473364 M65.5,179 C61.9160959,179 59,176.083904 59,172.5 C59,168.914859 61.9160959,166 65.5,166 C69.0839041,166 72,168.914859 72,172.5 C72,176.083904 69.0839041,179 65.5,179" id="Fill-68" fill="#7E2CFF" mask="url(#mask-2)"></path>
                <path d="M111.5,168.473364 C109.280156,168.473364 107.473364,170.280156 107.473364,172.5 C107.473364,174.719844 109.280156,176.526636 111.5,176.526636 C113.719844,176.526636 115.526636,174.719844 115.526636,172.5 C115.526636,170.280156 113.719844,168.473364 111.5,168.473364 M111.5,179 C107.916096,179 105,176.083904 105,172.5 C105,168.914859 107.916096,166 111.5,166 C115.083904,166 118,168.914859 118,172.5 C118,176.083904 115.083904,179 111.5,179" id="Fill-69" fill="#7E2CFF" mask="url(#mask-2)"></path>
                <path d="M74.5,2.47336377 C72.280156,2.47336377 70.4733638,4.28015601 70.4733638,6.5 C70.4733638,8.71984399 72.280156,10.5266362 74.5,10.5266362 C76.719844,10.5266362 78.5266362,8.71984399 78.5266362,6.5 C78.5266362,4.28015601 76.719844,2.47336377 74.5,2.47336377 M74.5,13 C70.9160959,13 68,10.0839041 68,6.5 C68,2.91485921 70.9160959,0 74.5,0 C78.0839041,0 81,2.91485921 81,6.5 C81,10.0839041 78.0839041,13 74.5,13" id="Fill-70" fill="#7E2CFF" mask="url(#mask-2)"></path>
                <path d="M25.5,23.4733638 C23.280156,23.4733638 21.4733638,25.280156 21.4733638,27.5 C21.4733638,29.719844 23.280156,31.5266362 25.5,31.5266362 C27.719844,31.5266362 29.5266362,29.719844 29.5266362,27.5 C29.5266362,25.280156 27.719844,23.4733638 25.5,23.4733638 M25.5,34 C21.9160959,34 19,31.0839041 19,27.5 C19,23.9148592 21.9160959,21 25.5,21 C29.0839041,21 32,23.9148592 32,27.5 C32,31.0839041 29.0839041,34 25.5,34" id="Fill-71" fill="#7E2CFF" mask="url(#mask-2)"></path>
                <path d="M119.5,2.47336377 C117.280156,2.47336377 115.473364,4.28015601 115.473364,6.5 C115.473364,8.71984399 117.280156,10.5266362 119.5,10.5266362 C121.719844,10.5266362 123.526636,8.71984399 123.526636,6.5 C123.526636,4.28015601 121.719844,2.47336377 119.5,2.47336377 M119.5,13 C115.916096,13 113,10.0839041 113,6.5 C113,2.91485921 115.916096,0 119.5,0 C123.083904,0 126,2.91485921 126,6.5 C126,10.0839041 123.083904,13 119.5,13" id="Fill-72" fill="#7E2CFF" mask="url(#mask-2)"></path>
                <path d="M6.5,73.4733638 C4.28015601,73.4733638 2.47336377,75.280156 2.47336377,77.5 C2.47336377,79.719844 4.28015601,81.5266362 6.5,81.5266362 C8.71984399,81.5266362 10.5266362,79.719844 10.5266362,77.5 C10.5266362,75.280156 8.71984399,73.4733638 6.5,73.4733638 M6.5,84 C2.91609589,84 0,81.0839041 0,77.5 C0,73.9148592 2.91609589,71 6.5,71 C10.0839041,71 13,73.9148592 13,77.5 C13,81.0839041 10.0839041,84 6.5,84" id="Fill-73" fill="#7E2CFF" mask="url(#mask-2)"></path>
                <path d="M6.5,118.473364 C4.28015601,118.473364 2.47336377,120.280156 2.47336377,122.5 C2.47336377,124.719844 4.28015601,126.526636 6.5,126.526636 C8.71984399,126.526636 10.5266362,124.719844 10.5266362,122.5 C10.5266362,120.280156 8.71984399,118.473364 6.5,118.473364 M6.5,129 C2.91609589,129 0,126.083904 0,122.5 C0,118.914859 2.91609589,116 6.5,116 C10.0839041,116 13,118.914859 13,122.5 C13,126.083904 10.0839041,129 6.5,129" id="Fill-74" fill="#7E2CFF" mask="url(#mask-2)"></path>
                <path d="M234.82408,116.662015 L234.835839,116.662015 L234.82408,116.662015 Z M145.35184,115.98365 L189.500588,141.467595 L233.64816,115.98365 L233.64816,65.0157617 L189.500588,39.5329931 L145.35184,65.0157617 L145.35184,115.98365 Z M189.500588,144 C189.297154,144 189.09372,143.947095 188.912628,143.842459 L143.58796,117.68015 C143.224601,117.469704 143,117.081731 143,116.662015 L143,64.3373969 C143,63.9176807 143.224601,63.5297078 143.58796,63.3192619 L188.912628,37.1569527 C189.275987,36.9476824 189.725189,36.9476824 190.088548,37.1569527 L235.41204,63.3192619 C235.776575,63.5297078 236,63.9176807 236,64.3373969 L236,116.662015 C236,117.081731 235.776575,117.469704 235.41204,117.68015 L190.088548,143.842459 C189.907456,143.947095 189.704022,144 189.500588,144 Z" id="Fill-75" fill="#7E2CFF" mask="url(#mask-2)"></path>
                <path d="M165.461101,90.5005898 L189.427503,140.141796 L213.537152,90.5005898 L189.427503,40.8582043 L165.461101,90.5005898 Z M189.42401,144 L189.422845,144 C188.977966,144 188.573848,143.744045 188.378194,143.33947 L163.117916,91.0183983 C162.960695,90.6916717 162.960695,90.3095078 163.117916,89.9827812 L188.378194,37.6605302 C188.573848,37.2559555 188.977966,37 189.422845,37 L189.42401,37 C189.867724,37 190.274171,37.2547759 190.469825,37.6581712 L215.880337,89.9804222 C216.039888,90.3083283 216.039888,90.6928512 215.880337,91.0207573 L190.469825,143.341829 C190.274171,143.745224 189.867724,144 189.42401,144 Z" id="Fill-76" fill="#7E2CFF" mask="url(#mask-2)"></path>
                <path d="M144.167001,117 C143.921751,117 143.672997,116.923366 143.461614,116.764293 C142.948924,116.376481 142.847321,115.648461 143.237385,115.13757 L162.368084,90.064436 L143.236218,64.8624178 C142.847321,64.3492046 142.950092,63.621185 143.46395,63.2356946 C143.978976,62.8478819 144.711224,62.948899 145.100121,63.4632733 L164.76453,89.3666054 C165.078684,89.7822848 165.078684,90.3547149 164.763362,90.7680721 L145.098953,116.540198 C144.868884,116.840927 144.520862,117 144.167001,117" id="Fill-77" fill="#7E2CFF" mask="url(#mask-2)"></path>
                <path d="M234.832999,117 C234.479138,117 234.12878,116.840924 233.899879,116.539029 L214.23547,90.6352552 C213.921316,90.2207298 213.921316,89.6471288 214.236638,89.2337645 L233.901047,63.4600378 C234.291112,62.9491381 235.021024,62.8481193 235.538386,63.2359386 C236.051076,63.6237579 236.152679,64.3517899 235.762615,64.8638507 L216.631916,89.9374127 L235.763782,115.1387 C236.152679,115.651922 236.049908,116.379954 235.53605,116.765451 C235.324667,116.924526 235.078249,117 234.832999,117" id="Fill-78" fill="#7E2CFF" mask="url(#mask-2)"></path>
                <polygon id="Fill-79" fill="#7E2CFF" opacity="0.202133862" mask="url(#mask-2)" points="69 69 91 69 91 59 69 59"></polygon>
                <polygon id="Fill-80" fill="#7E2CFF" opacity="0.511310634" mask="url(#mask-2)" points="69 88 90 88 90 79 69 79"></polygon>
                <polygon id="Fill-81" fill="#7E2CFF" opacity="0.511310634" mask="url(#mask-2)" points="104 119 113 119 113 98 104 98"></polygon>
                <polygon id="Fill-82" fill="#7E2CFF" opacity="0.300139925" mask="url(#mask-2)" points="189.5 39 165 89.3582575 189.5 141 214 90.6429189"></polygon>
                <path d="M91,107.5 C91,113.29865 86.2995745,118 80.4994043,118 C74.7004255,118 70,113.29865 70,107.5 C70,101.70135 74.7004255,97 80.4994043,97 C86.2995745,97 91,101.70135 91,107.5" id="Fill-83" fill="#7E2CFF" mask="url(#mask-2)"></path>
            </g>
        </g>
    </g>
</svg>