<?xml version="1.0" encoding="UTF-8"?>
<svg width="35px" height="35px" viewBox="0 0 35 35" version="1.1" xmlns="http://www.w3.org/2000/svg" xmlns:xlink="http://www.w3.org/1999/xlink">
    <!-- Generator: Sketch 51.3 (57544) - http://www.bohemiancoding.com/sketch -->
    <title>Shape</title>
    <desc>Created with Sketch.</desc>
    <defs></defs>
    <g id="Freja-Creative-Multi-Purpose-Portfolio-Template" stroke="none" stroke-width="1" fill="none" fill-rule="evenodd">
        <g id="HOMESCREEN" transform="translate(-1207.000000, -13106.000000)" fill="#FFFFFF" fill-rule="nonzero">
            <g id="Group-8" transform="translate(1207.000000, 13106.000000)">
                <g id="Social-Media">
                    <g id="Facebook">
                        <path d="M17.2552667,0 C7.72604504,0 0,7.82584189 0,17.478152 C0,27.130462 7.72604504,34.9563039 17.2552667,34.9563039 C26.7844884,34.9563039 34.5105334,27.130462 34.5105334,17.478152 C34.5105334,7.82368583 26.7844884,0 17.2552667,0 Z M21.7157414,17.475924 L18.8880164,17.4780801 L18.8858879,27.9649281 L15.0055885,27.9649281 L15.0055885,17.478152 L12.4173269,17.478152 L12.4173269,13.8645277 L15.0055885,13.8623717 L15.0012604,11.7344148 C15.0012604,8.785 15.7906735,6.9913039 19.2180146,6.9913039 L22.0737657,6.9913039 L22.0737657,10.6070842 L20.2878304,10.6070842 C18.9527247,10.6070842 18.8880164,11.1117454 18.8880164,12.0533676 L18.8836883,13.8623717 L22.0931356,13.8623717 L21.7157414,17.475924 Z" id="Shape"></path>
                    </g>
                </g>
            </g>
        </g>
    </g>
</svg>