<?xml version="1.0" encoding="UTF-8"?>
<svg width="35px" height="35px" viewBox="0 0 35 35" version="1.1" xmlns="http://www.w3.org/2000/svg" xmlns:xlink="http://www.w3.org/1999/xlink">
    <!-- Generator: Sketch 51.3 (57544) - http://www.bohemiancoding.com/sketch -->
    <title>Combined Shape</title>
    <desc>Created with Sketch.</desc>
    <defs></defs>
    <g id="Freja-Creative-Multi-Purpose-Portfolio-Template" stroke="none" stroke-width="1" fill="none" fill-rule="evenodd">
        <g id="HOMESCREEN" transform="translate(-1332.000000, -13104.000000)" fill="#FFFFFF" fill-rule="nonzero">
            <g id="Group-8" transform="translate(1206.000000, 13104.000000)">
                <g id="Social-Media">
                    <g id="LinkedIn" transform="translate(126.000000, 0.000000)">
                        <g id="linkedin-logo">
                            <path d="M17.2552667,0 C26.7844884,0 34.5105334,7.82368583 34.5105334,17.478152 C34.5105334,27.130462 26.7844884,34.9563039 17.2552667,34.9563039 C7.72604504,34.9563039 0,27.130462 0,17.478152 C0,7.82584189 7.72604504,0 17.2552667,0 Z M27,19.2770659 C27,15.6757341 25.0608593,13.9999577 22.4741588,14 C20.3863125,14 19.4535348,15.1396058 18.9312322,15.9373509 L18.9312322,15.9752321 L18.9053963,15.9752321 C18.9128998,15.9631828 18.9232598,15.9497807 18.9312322,15.9373509 L18.9312322,14.2754417 L15,14.2754417 C15.0529508,15.3761516 15,26 15,26 L18.9316159,26 L18.9316159,19.4522663 C18.9316159,19.1014427 18.9583045,18.7526063 19.0619891,18.5019818 C19.3463117,17.8009266 19.9925924,17.0761957 21.0785948,17.0761957 C22.501231,17.0761957 23.0697057,18.151581 23.0697057,19.7273275 L23.0697057,26 L27,26 L27,19.2770659 Z M11.012185,8 C9.79568897,8 9,8.86360269 9,9.99926965 C9,11.1101883 9.77266856,12 10.9649874,12 L10.9887404,12 C12.2287967,12 13,11.1103553 13,9.99926965 C12.9766325,8.86360269 12.2287967,8 11.012185,8 Z M9,26 L13,26 L13,14 L9,14 L9,26 Z" id="Combined-Shape"></path>
                        </g>
                    </g>
                </g>
            </g>
        </g>
    </g>
</svg>