<?xml version="1.0" encoding="UTF-8"?>
<svg width="36px" height="35px" viewBox="0 0 36 35" version="1.1" xmlns="http://www.w3.org/2000/svg" xmlns:xlink="http://www.w3.org/1999/xlink">
    <!-- Generator: Sketch 51.3 (57544) - http://www.bohemiancoding.com/sketch -->
    <title>Shape</title>
    <desc>Created with Sketch.</desc>
    <defs></defs>
    <g id="Freja-Creative-Multi-Purpose-Portfolio-Template" stroke="none" stroke-width="1" fill="none" fill-rule="evenodd">
        <g id="HOMESCREEN" transform="translate(-1258.000000, -13106.000000)" fill="#FFFFFF" fill-rule="nonzero">
            <g id="Group-8" transform="translate(1207.000000, 13106.000000)">
                <g id="Social-Media">
                    <g id="Twitter" transform="translate(51.830508, 0.000000)">
                        <path d="M17.2552667,0 C7.72604504,0 0,7.82584189 0,17.478152 C0,27.130462 7.72604504,34.9563039 17.2552667,34.9563039 C26.7844884,34.9563039 34.5105334,27.130462 34.5105334,17.478152 C34.5105334,7.82368583 26.7844884,0 17.2552667,0 Z M25.8397612,13.554271 L25.8526745,14.1113963 C25.8526745,19.8005133 21.5798681,26.3548563 13.7653458,26.3548563 C11.3668811,26.3548563 9.1344442,25.6426386 7.25364596,24.4213039 C7.58584369,24.460616 7.9244271,24.4824641 8.26740955,24.4824641 C10.2582545,24.4824641 12.0894572,23.7942505 13.5431948,22.6406879 C11.683966,22.6057598 10.1158536,21.3604209 9.57448912,19.651961 C9.83545094,19.7021971 10.0986123,19.7262731 10.3746869,19.7262731 C10.7629368,19.7262731 11.1382024,19.676037 11.4940982,19.5777207 C9.55072017,19.1800719 8.08619789,17.4432238 8.08619789,15.358963 L8.08619789,15.3043429 C8.65991657,15.6276797 9.31345635,15.8199281 10.010135,15.8440041 C8.87128287,15.0727823 8.12068061,13.7553593 8.12068061,12.263152 C8.12068061,11.4744661 8.32991835,10.7360164 8.69439929,10.1002669 C10.7887633,12.7044969 13.920589,14.4173409 17.4514493,14.5965092 C17.3780848,14.2818686 17.3414735,13.9519918 17.3414735,13.6155749 C17.3414735,11.2407495 19.2438412,9.31373717 21.5905819,9.31373717 C22.8113837,9.31373717 23.9157531,9.83586242 24.692182,10.6726283 C25.6584786,10.478152 26.5687231,10.1198871 27.3904903,9.62830595 C27.0734054,10.6333162 26.4004956,11.4766222 25.5226053,12.0096715 C26.3789262,11.9069713 27.2006934,11.6731828 27.9620804,11.3323819 C27.3926898,12.193152 26.6701136,12.9512936 25.8397612,13.554271 Z" id="Shape"></path>
                    </g>
                </g>
            </g>
        </g>
    </g>
</svg>